<svg width="16" height="16" viewBox="0 0 16 16" fill="none" xmlns="http://www.w3.org/2000/svg">
<path d="M3.05071 11.5351C2.66018 11.9256 2.66018 12.5588 3.05071 12.9493C3.44123 13.3398 4.07439 13.3398 4.46492 12.9493L3.05071 11.5351ZM13.2431 3.75691C13.2431 3.20462 12.7954 2.75691 12.2431 2.75691L3.24309 2.75691C2.69081 2.75691 2.24309 3.20462 2.24309 3.75691C2.24309 4.30919 2.69081 4.75691 3.24309 4.75691L11.2431 4.75691L11.2431 12.7569C11.2431 13.3092 11.6908 13.7569 12.2431 13.7569C12.7954 13.7569 13.2431 13.3092 13.2431 12.7569L13.2431 3.75691ZM4.46492 12.9493L12.9502 4.46401L11.536 3.0498L3.05071 11.5351L4.46492 12.9493Z" fill="black"/>
</svg>
